<?xml version="1.0" encoding="UTF-8"?>
<svg xmlns="http://www.w3.org/2000/svg" xmlns:xlink="http://www.w3.org/1999/xlink" width="20px" height="20px" viewBox="0 0 20 20" version="1.1">
<g id="surface1">
<path style=" stroke:none;fill-rule:nonzero;fill:rgb(0%,0%,0%);fill-opacity:1;" d="M 0.582031 2.167969 C 0.25 2.5 0 5.5 0 8.917969 L 0 15 L 20.082031 15 L 19.832031 8.5 L 19.582031 2.082031 L 10.332031 1.832031 C 5.332031 1.75 0.917969 1.917969 0.582031 2.167969 Z M 19 8.082031 L 18.75 12.917969 L 1.25 12.917969 L 1 8.082031 L 0.75 3.332031 L 19.25 3.332031 Z M 19 8.082031 "/>
<path style=" stroke:none;fill-rule:nonzero;fill:rgb(0%,0%,0%);fill-opacity:1;" d="M 7.917969 5 C 6.917969 5.332031 5.75 6.25 5.167969 6.917969 C 4.25 7.917969 4.5 8.5 6.332031 9.917969 C 9.167969 12.167969 11 12.167969 13.75 9.75 C 15.917969 7.917969 15.917969 7.832031 14.417969 6.5 C 12.417969 4.75 9.917969 4.167969 7.917969 5 Z M 11.5 5.75 C 12.167969 6.082031 12.5 7.332031 12.332031 8.417969 C 12 11.25 8 11.25 7.667969 8.417969 C 7.417969 6.75 8.582031 5 10 5 C 10.25 5 10.917969 5.332031 11.5 5.75 Z M 11.5 5.75 "/>
<path style=" stroke:none;fill-rule:nonzero;fill:rgb(0%,0%,0%);fill-opacity:1;" d="M 8.832031 7.25 C 7.832031 8.25 8.417969 9.167969 10 9.167969 C 10.917969 9.167969 11.667969 8.832031 11.667969 8.417969 C 11.667969 7.5 9.5 6.582031 8.832031 7.25 Z M 8.832031 7.25 "/>
<path style=" stroke:none;fill-rule:nonzero;fill:rgb(0%,0%,0%);fill-opacity:1;" d="M 6.667969 17.082031 C 5.75 18.167969 6.25 18.332031 10 18.332031 C 13.75 18.332031 14.25 18.167969 13.332031 17.082031 C 12.75 16.417969 11.25 15.832031 10 15.832031 C 8.75 15.832031 7.25 16.417969 6.667969 17.082031 Z M 6.667969 17.082031 "/>
</g>
</svg>
